<svg xmlns="http://www.w3.org/2000/svg" style="display: none;">
  <defs>
    <!-- ðŸŽ¨ Palette icon for color/tone tests -->
    <symbol id="icon-palette" viewBox="0 0 24 24">
      <path d="M12 2C6.48 2 2 6.48 2 12s4.48 10 10 10c1.1 0 2-.9 2-2 0-.55-.22-1.05-.59-1.41-.36-.36-.91-.59-1.41-.59H9c-3.31 0-6-2.69-6-6 0-4.97 4.03-9 9-9s9 4.03 9 9c0 2.76-2.24 5-5 5h-1c-.55 0-1 .45-1 1s.45 1 1 1c4.42 0 8-3.58 8-8 0-5.52-4.48-10-10-10z" stroke="currentColor" stroke-width="1.75" stroke-linecap="round" stroke-linejoin="round" fill="none"/>
      <circle cx="7" cy="10" r="1.5" fill="currentColor" opacity="0.3"/>
      <circle cx="12" cy="7" r="1.5" fill="currentColor" opacity="0.5"/>
      <circle cx="17" cy="10" r="1.5" fill="currentColor" opacity="0.7"/>
      <circle cx="10" cy="15" r="1.5" fill="currentColor" opacity="0.9"/>
    </symbol>

    <!-- ðŸ’§ Drop icon for skincare/face diagnosis -->
    <symbol id="icon-drop" viewBox="0 0 24 24">
      <path d="M12 2.5c0 0-5 4.5-5 9.5a5 5 0 0 0 10 0c0-5-5-9.5-5-9.5z" stroke="currentColor" stroke-width="1.75" stroke-linecap="round" stroke-linejoin="round" fill="none"/>
      <path d="M9.5 10.5c0-1.5 1-3 2.5-4" stroke="currentColor" stroke-width="1.75" stroke-linecap="round" stroke-linejoin="round" opacity="0.4"/>
    </symbol>

    <!-- ðŸ›’ Cart icon for shopping -->
    <symbol id="icon-cart" viewBox="0 0 24 24">
      <circle cx="9" cy="21" r="1" stroke="currentColor" stroke-width="1.75" stroke-linecap="round" stroke-linejoin="round"/>
      <circle cx="20" cy="21" r="1" stroke="currentColor" stroke-width="1.75" stroke-linecap="round" stroke-linejoin="round"/>
      <path d="M1 1H5L7.68 14.39C7.77144 14.8504 8.02191 15.264 8.38755 15.5583C8.75318 15.8526 9.2107 16.009 9.68 16H19.4C19.8693 16.009 20.3268 15.8526 20.6925 15.5583C21.0581 15.264 21.3086 14.8504 21.4 14.39L23 6H6" stroke="currentColor" stroke-width="1.75" stroke-linecap="round" stroke-linejoin="round"/>
    </symbol>

    <!-- â„¹ï¸ Info icon for information -->
    <symbol id="icon-info" viewBox="0 0 24 24">
      <circle cx="12" cy="12" r="10" stroke="currentColor" stroke-width="1.75" stroke-linecap="round" stroke-linejoin="round"/>
      <path d="M12 16V12" stroke="currentColor" stroke-width="1.75" stroke-linecap="round" stroke-linejoin="round"/>
      <circle cx="12" cy="8" r="1" fill="currentColor"/>
    </symbol>

    <!-- ðŸ“‹ List icon for recommendations -->
    <symbol id="icon-list" viewBox="0 0 24 24">
      <line x1="8" y1="6" x2="21" y2="6" stroke="currentColor" stroke-width="1.75" stroke-linecap="round" stroke-linejoin="round"/>
      <line x1="8" y1="12" x2="21" y2="12" stroke="currentColor" stroke-width="1.75" stroke-linecap="round" stroke-linejoin="round"/>
      <line x1="8" y1="18" x2="21" y2="18" stroke="currentColor" stroke-width="1.75" stroke-linecap="round" stroke-linejoin="round"/>
      <line x1="3" y1="6" x2="3.01" y2="6" stroke="currentColor" stroke-width="1.75" stroke-linecap="round" stroke-linejoin="round"/>
      <line x1="3" y1="12" x2="3.01" y2="12" stroke="currentColor" stroke-width="1.75" stroke-linecap="round" stroke-linejoin="round"/>
      <line x1="3" y1="18" x2="3.01" y2="18" stroke="currentColor" stroke-width="1.75" stroke-linecap="round" stroke-linejoin="round"/>
    </symbol>

    <!-- âš™ï¸ Settings icon for configuration -->
    <symbol id="icon-settings" viewBox="0 0 24 24">
      <circle cx="12" cy="12" r="3" stroke="currentColor" stroke-width="1.75" stroke-linecap="round" stroke-linejoin="round"/>
      <path d="M12 1V3" stroke="currentColor" stroke-width="1.75" stroke-linecap="round" stroke-linejoin="round"/>
      <path d="M12 21V23" stroke="currentColor" stroke-width="1.75" stroke-linecap="round" stroke-linejoin="round"/>
      <path d="M4.22 4.22L5.64 5.64" stroke="currentColor" stroke-width="1.75" stroke-linecap="round" stroke-linejoin="round"/>
      <path d="M18.36 18.36L19.78 19.78" stroke="currentColor" stroke-width="1.75" stroke-linecap="round" stroke-linejoin="round"/>
      <path d="M1 12H3" stroke="currentColor" stroke-width="1.75" stroke-linecap="round" stroke-linejoin="round"/>
      <path d="M21 12H23" stroke="currentColor" stroke-width="1.75" stroke-linecap="round" stroke-linejoin="round"/>
      <path d="M4.22 19.78L5.64 18.36" stroke="currentColor" stroke-width="1.75" stroke-linecap="round" stroke-linejoin="round"/>
      <path d="M18.36 5.64L19.78 4.22" stroke="currentColor" stroke-width="1.75" stroke-linecap="round" stroke-linejoin="round"/>
    </symbol>
  </defs>
</svg>