<svg xmlns="http://www.w3.org/2000/svg" style="display: none;">
  <defs>
    <!-- Palette icon for color/tone tests -->
    <symbol id="icon-palette" viewBox="0 0 24 24">
      <path d="M12 2C6.48 2 2 6.48 2 12s4.48 10 10 10c1.1 0 2-.9 2-2 0-.55-.22-1.05-.59-1.41-.36-.36-.91-.59-1.41-.59H9c-3.31 0-6-2.69-6-6 0-4.97 4.03-9 9-9s9 4.03 9 9c0 2.76-2.24 5-5 5h-1c-.55 0-1 .45-1 1s.45 1 1 1c4.42 0 8-3.58 8-8 0-5.52-4.48-10-10-10z" stroke="currentColor" stroke-width="1.75" stroke-linecap="round" stroke-linejoin="round" fill="none"/>
      <circle cx="7" cy="10" r="1.5" fill="currentColor" opacity="0.3"/>
      <circle cx="12" cy="7" r="1.5" fill="currentColor" opacity="0.5"/>
      <circle cx="17" cy="10" r="1.5" fill="currentColor" opacity="0.7"/>
      <circle cx="10" cy="15" r="1.5" fill="currentColor" opacity="0.9"/>
    </symbol>

    <!-- Drop icon for skincare/face diagnosis -->
    <symbol id="icon-drop" viewBox="0 0 24 24">
      <path d="M12 2.5c0 0-5 4.5-5 9.5a5 5 0 0 0 10 0c0-5-5-9.5-5-9.5z" stroke="currentColor" stroke-width="1.75" stroke-linecap="round" stroke-linejoin="round" fill="none"/>
      <path d="M9.5 10.5c0-1.5 1-3 2.5-4" stroke="currentColor" stroke-width="1.75" stroke-linecap="round" stroke-linejoin="round" opacity="0.4"/>
    </symbol>

    <!-- Shopping cart icon -->
    <symbol id="icon-cart" viewBox="0 0 24 24">
      <path d="M3 3h2l.4 2m0 0h15.6l-1.5 7H6.4m0 0L5 7m1.4 5v0m0 0l1.6 8h9" stroke="currentColor" stroke-width="1.75" stroke-linecap="round" stroke-linejoin="round" fill="none"/>
      <circle cx="9" cy="20" r="1" stroke="currentColor" stroke-width="1.75" fill="none"/>
      <circle cx="18" cy="20" r="1" stroke="currentColor" stroke-width="1.75" fill="none"/>
      <circle cx="19" cy="5" r="2.5" fill="currentColor" opacity="0.2"/>
      <text x="19" y="6" text-anchor="middle" font-size="8" fill="currentColor" font-weight="bold">3</text>
    </symbol>

    <!-- Info/help icon -->
    <symbol id="icon-info" viewBox="0 0 24 24">
      <circle cx="12" cy="12" r="9" stroke="currentColor" stroke-width="1.75" stroke-linecap="round" stroke-linejoin="round" fill="none"/>
      <path d="M12 16v-4" stroke="currentColor" stroke-width="1.75" stroke-linecap="round" stroke-linejoin="round"/>
      <circle cx="12" cy="8" r="0.5" fill="currentColor"/>
    </symbol>

    <!-- List icon for recommendations -->
    <symbol id="icon-list" viewBox="0 0 24 24">
      <path d="M8 6h13" stroke="currentColor" stroke-width="1.75" stroke-linecap="round" stroke-linejoin="round"/>
      <path d="M8 12h13" stroke="currentColor" stroke-width="1.75" stroke-linecap="round" stroke-linejoin="round"/>
      <path d="M8 18h13" stroke="currentColor" stroke-width="1.75" stroke-linecap="round" stroke-linejoin="round"/>
      <circle cx="4" cy="6" r="1.5" fill="currentColor" opacity="0.6"/>
      <circle cx="4" cy="12" r="1.5" fill="currentColor" opacity="0.6"/>
      <circle cx="4" cy="18" r="1.5" fill="currentColor" opacity="0.6"/>
    </symbol>

    <!-- Settings gear icon -->
    <symbol id="icon-settings" viewBox="0 0 24 24">
      <circle cx="12" cy="12" r="3" stroke="currentColor" stroke-width="1.75" stroke-linecap="round" stroke-linejoin="round" fill="none"/>
      <path d="M19.4 15a1.65 1.65 0 0 0 .33 1.82l.06.06a2 2 0 0 1 0 2.83 2 2 0 0 1-2.83 0l-.06-.06a1.65 1.65 0 0 0-1.82-.33 1.65 1.65 0 0 0-1 1.51V21a2 2 0 0 1-2 2 2 2 0 0 1-2-2v-.09A1.65 1.65 0 0 0 9 19.4a1.65 1.65 0 0 0-1.82.33l-.06.06a2 2 0 0 1-2.83 0 2 2 0 0 1 0-2.83l.06-.06a1.65 1.65 0 0 0 .33-1.82 1.65 1.65 0 0 0-1.51-1H3a2 2 0 0 1-2-2 2 2 0 0 1 2-2h.09A1.65 1.65 0 0 0 4.6 9a1.65 1.65 0 0 0-.33-1.82l-.06-.06a2 2 0 0 1 0-2.83 2 2 0 0 1 2.83 0l.06.06a1.65 1.65 0 0 0 1.82.33H9a1.65 1.65 0 0 0 1-1.51V3a2 2 0 0 1 2-2 2 2 0 0 1 2 2v.09a1.65 1.65 0 0 0 1 1.51 1.65 1.65 0 0 0 1.82-.33l.06-.06a2 2 0 0 1 2.83 0 2 2 0 0 1 0 2.83l-.06.06a1.65 1.65 0 0 0-.33 1.82V9a1.65 1.65 0 0 0 1.51 1H21a2 2 0 0 1 2 2 2 2 0 0 1-2 2h-.09a1.65 1.65 0 0 0-1.51 1z" stroke="currentColor" stroke-width="1.75" stroke-linecap="round" stroke-linejoin="round" fill="none"/>
    </symbol>
  </defs>
</svg>



